<svg width="139" height="113" viewBox="0 0 139 113" fill="none" xmlns="http://www.w3.org/2000/svg">
<g clip-path="url(#clip0)">
<path d="M109.463 77.6875H29.6245C28.6688 77.6875 27.887 78.482 27.887 79.4531L27.8652 90.0469C27.8652 91.018 28.6471 91.8125 29.6027 91.8125H109.463C110.418 91.8125 111.2 91.018 111.2 90.0469V79.4531C111.2 78.482 110.418 77.6875 109.463 77.6875Z" fill="#EDD607"/>
<path d="M109.461 98.875H29.558C28.6024 98.875 27.8205 99.6695 27.8205 100.641L27.7988 111.234C27.7988 112.205 28.5807 113 29.5363 113H109.461C110.417 113 111.199 112.205 111.199 111.234V100.641C111.199 99.6695 110.417 98.875 109.461 98.875Z" fill="#EDD607"/>
<path d="M109.462 56.5H29.6674C28.7118 56.5 27.9299 57.2945 27.9299 58.2656L27.9082 68.8594C27.9082 69.8305 28.6901 70.625 29.6457 70.625H109.462C110.418 70.625 111.2 69.8305 111.2 68.8594V58.2656C111.2 57.2945 110.418 56.5 109.462 56.5Z" fill="#EDD607"/>
<path d="M109.462 35.3125H29.6674C28.7118 35.3125 27.9299 36.107 27.9299 37.0781L27.9082 47.6719C27.9082 48.643 28.6901 49.4375 29.6457 49.4375H109.462C110.418 49.4375 111.2 48.643 111.2 47.6719V37.0781C111.2 36.107 110.418 35.3125 109.462 35.3125Z" fill="#EDD607"/>
<path d="M132.593 0.352664L132.397 0.242312C90.5237 -0.177024 48.8237 0.0657499 6.92828 0.0657499L6.40703 0.352664C2.54109 2.49348 0 7.4593 0 12.999V110.726C0 111.984 0.781875 113 1.7375 113H19.1125C20.0681 113 20.85 111.962 20.85 110.726V39.9909C20.85 34.981 24.0209 30.8759 27.9303 30.8759H111.07C114.979 30.8759 118.15 34.981 118.15 39.9909V110.704C118.15 111.962 118.932 112.977 119.887 112.977H137.262C138.218 112.977 139 111.94 139 110.704V12.999C139 7.4593 136.459 2.49348 132.593 0.352664Z" fill="#EDD607"/>
</g>
<defs>
<clipPath id="clip0">
<rect width="139" height="113" fill="white"/>
</clipPath>
</defs>
</svg>
