<?xml version="1.0" encoding="utf-8"?>
<!-- Generator: Adobe Illustrator 24.3.0, SVG Export Plug-In . SVG Version: 6.00 Build 0)  -->
<svg version="1.1" id="Layer_1" xmlns="http://www.w3.org/2000/svg" xmlns:xlink="http://www.w3.org/1999/xlink" x="0px" y="0px"
	 viewBox="0 0 496 512" style="enable-background:new 0 0 496 512;" xml:space="preserve">
<style type="text/css">
	.st0{fill:#1FD6C7;}
	.st1{fill:#EDD607;}
</style>
<path class="st0" d="M91.6,0h312.8C455,0,496,41,496,91.6v328.8c0,50.6-41,91.6-91.6,91.6H91.6C41,512,0,471,0,420.4V91.6
	C0,41,41,0,91.6,0z"/>
<path class="st1" d="M378.6,232.2h-17.8v-53.4C360.8,116.6,310.2,66,248,66s-112.8,50.6-112.8,112.8v53.4h-17.8
	c-19.7,0-35.6,16-35.6,35.6v142.5c0,19.7,16,35.6,35.6,35.6h261.2c19.7,0,35.6-16,35.6-35.6V267.9
	C414.2,248.2,398.3,232.2,378.6,232.2z M301.4,232.2H194.6v-53.4c0-29.5,24-53.4,53.4-53.4s53.4,24,53.4,53.4V232.2z"/>
</svg>
